<svg width="20" height="20" viewBox="0 0 20 20" fill="none" xmlns="http://www.w3.org/2000/svg">
<g id="restart_alt_FILL0_wght400_GRAD0_opsz24 1">
<path id="Vector" d="M8.18717 17.25C6.75662 16.8472 5.58995 16.059 4.68717 14.8854C3.7844 13.7118 3.33301 12.3611 3.33301 10.8333C3.33301 10.0417 3.46495 9.28819 3.72884 8.57292C3.99273 7.85764 4.36773 7.20139 4.85384 6.60417C5.00662 6.4375 5.19412 6.35069 5.41634 6.34375C5.63856 6.33681 5.83995 6.42361 6.02051 6.60417C6.17329 6.75694 6.25315 6.94444 6.26009 7.16667C6.26704 7.38889 6.19412 7.59722 6.04134 7.79167C5.70801 8.22222 5.45106 8.69444 5.27051 9.20833C5.08995 9.72222 4.99967 10.2639 4.99967 10.8333C4.99967 11.9583 5.32954 12.9618 5.98926 13.8438C6.64898 14.7257 7.49967 15.3264 8.54134 15.6458C8.7219 15.7014 8.8712 15.8056 8.98926 15.9583C9.10731 16.1111 9.16634 16.2778 9.16634 16.4583C9.16634 16.7361 9.06912 16.9549 8.87467 17.1146C8.68023 17.2743 8.45106 17.3194 8.18717 17.25ZM11.8122 17.25C11.5483 17.3194 11.3191 17.2708 11.1247 17.1042C10.9302 16.9375 10.833 16.7153 10.833 16.4375C10.833 16.2708 10.892 16.1111 11.0101 15.9583C11.1281 15.8056 11.2775 15.7014 11.458 15.6458C12.4997 15.3125 13.3504 14.7083 14.0101 13.8333C14.6698 12.9583 14.9997 11.9583 14.9997 10.8333C14.9997 9.44444 14.5136 8.26389 13.5413 7.29167C12.5691 6.31944 11.3886 5.83333 9.99967 5.83333H9.93717L10.2705 6.16667C10.4233 6.31944 10.4997 6.51389 10.4997 6.75C10.4997 6.98611 10.4233 7.18056 10.2705 7.33333C10.1177 7.48611 9.92329 7.5625 9.68717 7.5625C9.45106 7.5625 9.25662 7.48611 9.10384 7.33333L7.35384 5.58333C7.27051 5.5 7.21148 5.40972 7.17676 5.3125C7.14204 5.21528 7.12467 5.11111 7.12467 5C7.12467 4.88889 7.14204 4.78472 7.17676 4.6875C7.21148 4.59028 7.27051 4.5 7.35384 4.41667L9.10384 2.66667C9.25662 2.51389 9.45106 2.4375 9.68717 2.4375C9.92329 2.4375 10.1177 2.51389 10.2705 2.66667C10.4233 2.81944 10.4997 3.01389 10.4997 3.25C10.4997 3.48611 10.4233 3.68056 10.2705 3.83333L9.93717 4.16667H9.99967C11.8608 4.16667 13.4372 4.8125 14.7288 6.10417C16.0205 7.39583 16.6663 8.97222 16.6663 10.8333C16.6663 12.3472 16.215 13.6944 15.3122 14.875C14.4094 16.0556 13.2427 16.8472 11.8122 17.25Z" fill="#DDDDDD"/>
</g>
</svg>
